<?xml version="1.0" encoding="UTF-8"?>
<svg width="158px" height="92px" viewBox="0 0 158 92" version="1.1" xmlns="http://www.w3.org/2000/svg" xmlns:xlink="http://www.w3.org/1999/xlink">
    <title>Group 6@2x</title>
    <g id="Page-1" stroke="none" stroke-width="1" fill="none" fill-rule="evenodd">
        <g id="one-sign-/-small" transform="translate(-150.000000, -34.000000)" fill-rule="nonzero">
            <g id="Group-6" transform="translate(150.000000, 34.000000)">
                <path d="M158,85.2864766 C158,85.8430439 157.894602,86.035166 157.336901,85.994835 C156.583062,85.9405715 155.822941,85.994835 155.064914,85.9992348 C155.032403,85.8545763 155.010699,85.7074707 155,85.5592606 C155.004188,79.7134702 155.01047,73.8679242 155.018846,68.0226227 C155.20591,67.3252636 155.483713,66.7078331 156.111913,66.300857 C156.722662,65.9048802 157.253141,65.3754446 157.986738,65 L157.986738,65.7032254 C157.988134,72.2309758 157.981154,78.7587262 158,85.2864766 Z" id="Path" fill="#FFFFFF"></path>
                <path d="M158,60.1958082 C158.004314,60.8432417 157.804827,61.0153442 157.196134,60.9989535 C155.931984,60.9602118 154.666372,60.9989535 153.40076,60.9989535 C153.276537,60.7277616 153.320381,60.4386889 153.320381,60.1563215 C153.320381,52.9707293 153.318432,45.7846403 153.314535,38.5980547 C153.314535,38.3670946 153.399299,38.1160185 153.231963,37.9021942 C152.165108,37.7576578 151.093138,37.8597273 150.02409,37.8418465 C148.887086,37.8224757 147.74935,37.8418465 146.612346,37.8336511 C146.406282,37.8336511 146.179758,37.9081544 146,37.7286015 C146,36.1983043 146,34.6682555 146,33.1384549 C146.197295,32.9380411 146.447202,33.0281901 146.672265,33.0281901 C149.41759,33.0214848 152.165108,33.0863026 154.908241,33.002114 C156.874616,32.9417663 157.972893,34.1777756 157.982392,36.1603077 C158.001391,40.1879545 157.988238,44.2156014 157.988238,48.2425033 C157.986046,52.2284283 157.972162,56.2128633 158,60.1958082 Z" id="Path" fill="#000000"></path>
                <path d="M157.996245,15.743418 L157.996245,27.9223308 C156.645816,28.0627303 155.290987,27.9223308 153.94129,27.9970114 C153.501411,28.0209092 153.343787,27.9029139 153.296867,27.5914957 L153.296867,27.5914957 C153.292468,27.4959046 153.292468,27.3794028 153.292468,27.2375097 C153.292468,23.8315763 153.292468,20.425394 153.292468,17.0189627 C153.292468,14.0033599 153.292468,10.9872593 153.292468,7.9706608 C153.292468,7.18203363 153.292468,6.39390433 153.292468,5.6062729 C153.292468,5.57714746 153.292468,5.54727522 153.292468,5.51814979 C153.291682,5.51676341 153.291682,5.51505533 153.292468,5.51366895 L153.296867,5.43898835 C153.296867,5.43450751 153.296867,5.43002668 153.296867,5.42554584 C153.296867,5.3956736 153.301266,5.36580136 153.301999,5.33667592 C153.320862,5.1856508 153.295349,5.03231898 153.228685,4.89606036 L153.228685,4.89606036 C153.043936,4.65857604 152.788806,4.79150752 152.574731,4.7892671 C150.382665,4.76760972 148.192066,4.76312889 146,4.75342041 L146.006598,0.0418211379 C146.260262,0.0321126595 146.51246,0.0149361207 146.766123,0.0149361207 C149.779786,0.00796593103 152.793938,0.00298722414 155.808578,0 C157.274843,0.418958185 157.988181,1.41893147 157.991114,3.10297907 C158.000889,7.31795233 158.002599,11.531432 157.996245,15.743418 Z" id="Path" fill="#FFFFFF"></path>
                <path d="M151.986653,65.4295889 C151.991117,72.3372006 151.991117,79.24506 151.986653,86.1531671 C151.982188,88.7834703 149.898773,91.4657998 146.397147,90.9314149 C144.42832,90.6341215 142.751171,89.0807636 142.73629,86.7945776 C142.73629,86.3486375 142.618725,86.2141122 142.152189,86.2155987 C135.965438,86.2398777 129.778688,86.2507784 123.591937,86.248301 C121.954968,86.248301 120.31279,86.2289769 118.672845,86.2282337 C110.692869,86.2282337 102.712397,86.2329408 94.7314293,86.2423551 C94.1428645,86.2423551 93.9992577,86.0937084 94.0178596,85.5199322 C94.061016,84.1679906 93.9337789,82.8049004 94.051343,81.4618776 C94.1741157,80.049734 94.8527138,78.8412365 95.7664401,77.7315889 C96.9048777,76.3491747 98.4525574,76.1328938 100.047858,76.0474219 C101.572472,75.9664095 102.852284,75.3837145 103.991465,74.4182542 C104.26603,74.5847385 104.132096,74.853789 104.133584,75.0715564 C104.144745,77.3228105 104.133584,79.5733214 104.146977,81.8245755 C104.146977,82.0207891 104.023461,82.2563941 104.250404,82.4191623 C105.31741,82.4332837 106.38516,82.4377431 107.449934,82.4667292 C107.838342,82.4771345 107.90903,82.1961922 107.961115,81.9412632 C108.541495,79.129611 110.188137,77.1563262 112.738088,75.9247884 C113.177838,75.7122237 113.340791,75.4788484 113.324421,75.0217598 C113.291682,74.0875153 113.496303,73.1874596 114.16746,72.5222657 C114.827456,71.8689635 115.600552,71.3330922 116.325283,70.7422216 C116.639283,70.880463 116.485259,71.1591756 116.495676,71.3724836 C116.552226,72.5534815 116.442103,73.7374524 116.518743,74.9191936 L116.518743,74.9526391 C116.518743,75.1652038 116.455496,75.3889171 116.584221,75.5903334 C117.683223,75.8036414 118.771063,76.0132332 119.709344,76.7178185 C120.945256,77.6468603 121.702726,78.8471823 121.989195,80.3596624 C121.989195,80.8824032 121.989195,81.4051441 121.989195,81.927885 C121.950503,82.0928828 121.914788,82.2578806 121.865679,82.4607833 C123.926772,82.4191623 125.96331,82.5388229 127.999104,82.4117299 C128.024058,82.3215477 128.042215,82.2296251 128.053422,82.1367336 C128.13899,81.5919434 128.09509,81.0389778 128.109971,80.4897282 C127.915767,78.807791 129.217158,78.1173271 130.272259,77.2856489 C130.541614,77.0738273 130.780463,76.7743042 131.207563,76.6977512 C131.325871,76.9764637 131.259649,77.2789598 131.261137,77.5665911 C131.269074,79.053058 131.269074,80.5382862 131.261137,82.0222756 C131.261137,82.28761 131.261137,82.4682157 131.625734,82.4637563 C134.676449,82.4496348 137.733861,82.4555807 140.806154,82.4555807 C140.776391,82.1917328 140.569538,82.0445726 140.419234,81.9561278 C139.562058,81.4529588 139.242105,80.6026997 138.908758,79.7531839 C138.864174,79.6120931 138.812266,79.4734163 138.753246,79.3377164 C138.065719,78.0103015 137.214495,77.8044258 136.028437,79.021099 C136.028437,77.9173973 135.88483,76.8590329 136.073082,75.8631 C136.226361,75.0537188 137.000201,74.5996032 137.841752,74.4294027 L138.755479,74.4375783 C140.410305,75.1064884 141.120899,76.6137658 141.810658,78.0623278 C142.623934,79.7717647 143.534684,81.3622843 145.180582,82.3790277 C145.627028,82.6525376 145.541459,83.0122626 145.601729,83.3757037 C145.5928,83.9873848 145.56899,84.6005524 145.66572,85.2077742 C145.666077,85.2137147 145.666077,85.2196713 145.66572,85.2256118 C145.673905,85.2798678 145.683578,85.3333806 145.695483,85.3868934 C145.664976,85.8625628 145.616611,86.347151 145.787004,86.799037 C146.084635,87.5861212 146.710404,87.9621973 147.444808,87.8395638 C148.040069,87.7407137 148.709738,86.9521431 148.767776,86.2639089 C148.78489,86.0684385 148.775217,85.8707384 148.775217,85.6737815 C148.775217,80.0772337 148.800516,74.4806858 148.754383,68.8848812 C148.745454,67.7514502 149.106331,66.9205152 150.00592,66.2835642 C150.619783,65.8502591 151.235879,65.4199269 151.833373,65 C152.067013,65.1204038 151.986653,65.2950637 151.986653,65.4295889 Z M118.484594,82.240043 C119.005447,81.2738395 118.211517,79.8468313 117.175763,79.4789308 C116.625146,79.2834604 116.425733,79.4172424 116.494932,79.9991942 C116.530648,80.3002037 116.501629,80.6086456 116.501629,80.9141145 L116.501629,82.0252485 C116.501629,82.2430159 116.468145,82.51058 116.808933,82.4548375 C117.378895,82.3634198 118.186219,82.7967249 118.484594,82.240043 Z M112.953871,82.463013 C113.185279,82.4674724 113.31326,82.4288243 113.308795,82.1486253 C113.293914,81.243367 113.302843,80.3373654 113.302843,79.3733916 C111.893561,79.9679784 111.293835,81.0382345 111.106328,82.4592969 C111.738049,82.4615266 112.34596,82.4555807 112.953871,82.4652427 L112.953871,82.463013 Z M100.968281,79.896628 C100.978698,79.5733214 100.872295,79.4551473 100.552342,79.3845401 C99.0448426,79.0493418 97.4272196,80.2526368 97.2419445,81.858021 C97.1920913,82.284637 97.2508734,82.5172691 97.7627982,82.4689589 C98.215941,82.4258514 98.6765246,82.4592969 99.1341318,82.4592969 C99.6133173,82.4592969 100.093247,82.4414593 100.570944,82.465986 C100.896106,82.4815939 100.974978,82.354501 100.967537,82.0512617 C100.948935,81.3355279 100.945959,80.6160779 100.968281,79.8988577 L100.968281,79.896628 Z" id="Shape" fill="#FFFFFF"></path>
                <path d="M150.997651,43.5884737 C151.000783,49.1987969 151.000783,54.8096131 150.997651,60.4209224 C150.986563,60.6150103 150.963817,60.8083473 150.929522,61 C149.530149,60.9955626 148.130775,60.9940835 146.730619,60.9837296 C146.485513,60.9837296 146.221613,61.0517694 146.003915,60.8735348 C146.003915,54.9599909 146.00261,49.0471865 146,43.1351217 C146.207518,42.9376585 146.469851,43.0153125 146.712608,43.0138334 C148.122161,43.0056982 149.531715,43.0079169 150.941269,43.0064378 C150.960846,43.2002032 150.997651,43.3939687 150.997651,43.5884737 Z" id="Path" fill="#000000"></path>
                <path d="M149.93551,27.9365698 L150,28 C149.800955,27.8410514 149.555732,27.817918 149.308121,27.8156793 C148.103769,27.8037395 146.899151,27.8037395 145.694268,27.8156793 C145.449045,27.8156793 145.202229,27.8350815 145.003981,27.9940301 L145.06449,27.9335848 C145.234076,27.6261349 145.196656,27.2910742 145.196656,26.9634758 C145.199841,21.6537457 145.199841,16.3442643 145.196656,11.0350317 C145.196656,10.7081796 145.23328,10.3738651 145.063694,10.0649227 L145,10 C145.17914,10.1492475 145.398089,10.1761121 145.626592,10.1790971 C146.876592,10.1940218 148.126327,10.1940218 149.375796,10.1790971 C149.59793,10.1790971 149.815287,10.1440239 149.992834,10.0044774 C149.97293,10.0231334 149.953025,10.0425355 149.933917,10.0619377 C149.763535,10.3678952 149.800955,10.7014635 149.800159,11.0268231 C149.796975,16.3415281 149.796975,21.6559844 149.800159,26.9701919 C149.800955,27.3007753 149.763535,27.6313586 149.93551,27.9365698 Z" id="Path" fill="#FFFFFF"></path>
                <path d="M142.984367,3.09391395 C143.012138,7.92600697 142.994598,12.758847 142.993868,17.5916869 C142.993868,21.0406565 142.993868,24.4893771 142.993868,27.9378487 C141.450421,28.0521338 139.906243,27.9722089 138.362066,27.9804255 L138.352565,27.9737029 C138.340142,27.7115194 138.317487,27.4508299 138.317487,27.1871526 C138.317487,19.9889349 138.315538,12.7909663 138.311641,5.59324665 C138.311641,5.36094167 138.38472,5.11519138 138.2466,4.89483778 C138.246839,4.8931035 138.246839,4.89134334 138.2466,4.88960905 L138.2466,4.88960905 C138.080708,4.67523114 137.848314,4.7842875 137.655383,4.79175711 C137.040782,4.81491291 136.253712,4.52509191 135.84008,4.87541678 C135.810062,4.89376992 135.784956,4.91943164 135.767,4.95011292 C135.444717,5.34376156 135.69392,6.14525109 135.69392,6.75626548 C135.686612,13.5640713 135.684663,20.3721261 135.688073,27.1804299 C135.688073,27.4433603 135.670534,27.7033029 135.661034,27.9692211 L131.02777,27.952041 L131.02777,27.952041 C131.03269,27.9108039 131.022824,27.8691416 131,27.8347681 C131.006334,23.2215347 131.01218,18.6087993 131.017539,13.9965619 C131.022898,9.38432453 131.017539,4.77134017 131.001462,0.157608847 C131.026445,0.127137365 131.037126,0.0870147494 131.030694,0.0478055269 C131.287204,0.0366011066 131.542253,0.0164331499 131.800955,0.0156861885 C134.804538,0.00871454918 137.808608,0.00348581967 140.813164,0 C142.252838,0.3189525 142.974867,1.40428735 142.984367,3.09391395 Z" id="Path" fill="#FFFFFF"></path>
                <path d="M142,60.2592919 C142.003467,60.8449512 141.831676,61.0133469 141.295885,60.9991898 C140.055327,60.9664048 138.813361,60.9991898 137.572804,60.9991898 L137.572804,60.9991898 C137.572804,60.9991898 137.572804,60.9991898 137.572804,60.9991898 C137.459449,60.7279684 137.502397,60.4403545 137.502397,60.1587016 C137.502397,52.9892179 137.500285,45.8197342 137.496061,38.6502506 C137.496061,38.3998924 137.589701,38.128671 137.410165,37.8954504 C136.974351,37.7829383 136.534312,37.8447827 136.095681,37.8567045 L136.095681,37.8567045 C135.969774,36.2436187 135.968125,34.6223638 136.090752,33.008995 C137.104602,33.0134657 138.121972,33.0835064 139.130893,33.008995 C141.102268,32.864443 141.992907,34.4873005 141.994315,36.063961 C141.998539,40.2053028 141.998539,44.3471413 141.994315,48.4894765 C141.988682,52.4139901 141.977417,56.3362685 142,60.2592919 Z" id="Path" fill="#000000"></path>
                <path d="M138.993692,90.3721479 C139.057627,91.195526 138.634674,91.7563473 137.765583,92 C137.554809,91.8004568 137.344035,91.8025573 137.133261,91.9950989 C136.44403,91.930685 136.135598,91.4846885 136,90.8671549 L136,90.1305956 C136.299299,89.2519055 136.838178,88.9060307 137.726941,89.0215557 C138.418559,89.1127181 138.949069,89.6783411 138.993692,90.3721479 L138.993692,90.3721479 Z" id="Path" fill="#FFFFFF"></path>
                <path d="M134,35.627153 L134,35.627153 C133.997079,44.0406042 133.993914,52.4535585 133.990506,60.866016 C133.679383,61.0843762 133.328092,60.9688614 132.99725,60.9740782 C131.99669,60.9912191 130.995401,60.9845118 129.994841,60.9740782 C129.767707,60.9740782 129.522315,61.0486039 129.322203,60.8607992 C129.325124,53.3530833 129.325124,45.8453674 129.322203,38.3376516 C129.322203,38.1759309 129.395236,37.9814189 129.209001,37.8614325 C127.023107,37.8487632 124.837214,37.8219339 122.65132,37.8353486 C122.166378,37.8353486 121.982333,37.7362294 122.001322,37.1959183 C122.043682,35.9714616 122.029805,34.7432786 122.005704,33.5173313 C121.99767,33.1119117 122.118176,32.9956516 122.516939,33 C125.476257,33.0165188 128.432654,33 131.394164,33.0135378 C132.837306,33.0239714 133.555226,33.7647565 134,35.627153 Z" id="Path" fill="#000000"></path>
                <path d="M129,90.134756 C128.995948,90.42204 128.991671,90.7090904 128.987169,90.9959073 C128.748117,91.4695756 128.438834,91.8626642 127.906706,92 C127.664952,91.7785811 127.423874,91.7771797 127.182795,92 C126.390681,91.7365395 125.936886,91.1367466 126.007116,90.4465642 C126.082073,89.7143403 126.51696,89.1741063 127.136876,89.0451788 C128.00935,88.8672028 128.599553,89.2119437 129,90.134756 Z" id="Path" fill="#FFFFFF"></path>
                <path d="M129,3.71798869 L129,3.7269513 C128.995337,4.07499926 128.976683,4.42304721 128.936267,4.77258894 L128.927717,4.77781713 C128.170691,4.85250553 127.40123,4.68669727 126.647312,4.82487082 C126.53862,4.82281084 126.431315,4.84858944 126.336419,4.89955922 C126.336419,5.07582385 126.341859,5.25208848 126.344968,5.4291 C126.33331,5.71963788 126.305329,6.01092266 126.446786,6.28502909 C126.458445,6.52701952 126.470103,6.76826306 126.480984,7.01025348 C126.46544,7.31871659 126.455336,7.62568592 126.565703,7.921452 C126.571921,7.93713656 126.578139,7.95356801 126.585134,7.96925258 C126.597569,8.22070353 126.610264,8.47240345 126.623218,8.72435233 C126.606896,8.99098993 126.598347,9.25688064 126.700942,9.51082121 C126.706382,9.52650577 126.713377,9.54293722 126.720372,9.55862179 C126.732808,9.80808105 126.746021,10.0567934 126.758457,10.3055058 C126.74369,10.5773716 126.732031,10.8484905 126.840844,11.1069124 C126.845507,11.1203563 126.850948,11.1330533 126.857166,11.1464972 L126.894473,11.8866593 C126.879705,12.1749565 126.861829,12.4640007 126.993959,12.7366133 C127.006395,12.9808444 127.01883,13.2243286 127.030489,13.4685597 C127.017276,13.7590976 126.993182,14.0503823 127.132307,14.3244888 C127.144224,14.5659813 127.155624,14.8077227 127.166505,15.0497132 C127.151737,15.3484668 127.142411,15.6397515 127.238788,15.9228206 C127.248114,15.9512022 127.258996,15.9795838 127.270654,16.0072185 C127.28309,16.2596653 127.295785,16.5118631 127.308739,16.763812 C127.29164,17.0297027 127.284644,17.2955934 127.386462,17.5487871 C127.391903,17.5652186 127.398898,17.58165 127.405893,17.5973346 C127.418329,17.8467938 127.431542,18.0962531 127.443977,18.3442186 C127.427655,18.6153375 127.418329,18.8872033 127.521701,19.1456252 C127.526364,19.1590691 127.531805,19.1717661 127.538023,19.18521 C127.551236,19.4316817 127.563671,19.6789004 127.576107,19.9253721 C127.560563,20.2136693 127.545018,20.5012197 127.675593,20.7738323 C127.688029,21.0180634 127.699687,21.2630414 127.712123,21.5072725 C127.698133,21.7970635 127.675593,22.0876014 127.813164,22.3609609 L127.848139,23.0884259 C127.833372,23.3834451 127.824045,23.6777174 127.920422,23.9607865 C127.920422,23.9645209 127.920422,23.9675084 127.920422,23.970496 C127.928159,23.9960138 127.937769,24.0209725 127.94918,24.0451844 L127.986487,24.8025248 C127.970942,25.065428 127.96317,25.3253436 128.06421,25.5762966 C128.070972,25.5953427 128.078755,25.6140399 128.087527,25.6323129 C128.099963,25.883266 128.113176,26.1334721 128.125612,26.3844252 C128.110067,26.6555441 128.099963,26.926663 128.207221,27.184338 C128.211885,27.1977819 128.217325,27.2104789 128.223543,27.2239228 L128.223543,27.9289813 C126.542386,28.0133792 124.861229,28.0380264 123.180071,27.9162843 L123.138101,27.4330503 C123.1552,27.1634252 123.162195,26.8952938 123.060377,26.6391126 C123.054937,26.6249218 123.049496,26.6114779 123.043278,26.598034 L123.005971,25.85115 C123.019184,25.5606121 123.043278,25.2693273 122.90493,24.9952209 C122.892495,24.7094133 122.879541,24.4233567 122.866069,24.1370511 C122.882391,23.8666791 122.891717,23.5955602 122.788345,23.3371383 C122.783682,23.3236944 122.778241,23.3109974 122.772023,23.2975535 L122.734716,22.5558976 C122.747152,22.2653598 122.775132,21.9725812 122.633676,21.6992217 C122.620463,21.4131651 122.608027,21.1278554 122.594814,20.8425457 C122.611913,20.5557422 122.622017,20.2704325 122.49766,19.9993136 C122.485224,19.7528419 122.473566,19.507117 122.46113,19.2606453 C122.475897,18.9678668 122.485224,18.6758351 122.391956,18.393513 C122.381852,18.3636376 122.370971,18.3337622 122.358535,18.3038869 C122.346099,18.0514401 122.333922,17.7992422 122.322005,17.5472933 C122.33755,17.2604899 122.350763,16.9736864 122.224073,16.7018206 C122.211638,16.4558468 122.199461,16.2106199 122.187543,15.9661399 C122.202311,15.6733613 122.211638,15.3805828 122.11837,15.0990075 C122.118624,15.0955263 122.118624,15.0920323 122.11837,15.0885511 C122.109043,15.0609164 122.098939,15.0340286 122.088057,15.0071408 C122.075622,14.7551919 122.063445,14.503492 122.051527,14.252041 C122.065518,13.9644907 122.083394,13.6761934 121.952819,13.4035808 C121.940383,13.1595986 121.928465,12.9153676 121.917066,12.6708875 C121.932611,12.3616775 121.943492,12.0524676 121.833902,11.7567015 C121.827684,11.74027 121.821466,11.7245855 121.814471,11.7089009 L121.777164,10.9567887 C121.791931,10.6684915 121.811362,10.3794473 121.678455,10.1068347 L121.64348,9.3756352 C121.658247,9.06343768 121.670683,8.75124015 121.557984,8.45173966 C121.552543,8.43754886 121.547103,8.42335806 121.540885,8.40916727 L121.503577,7.66228324 C121.517568,7.37323912 121.540107,7.08270123 121.404091,6.8085948 C121.390101,6.52228925 121.376629,6.23573475 121.363675,5.94893128 C121.379997,5.67855926 121.388547,5.40893413 121.285952,5.15200602 C121.280511,5.13781523 121.275071,5.12437131 121.268853,5.1109274 L121.240872,4.89731857 C120.528149,4.62171836 119.783558,4.86520256 119.059954,4.77258894 L119.052958,4.76810763 C118.986894,3.18546038 118.975235,1.60281312 119.060731,0.0201658687 L119.060731,0.0201658687 L126.733585,0 C127.992705,0.284562815 128.623041,1.14049191 128.956475,2.26529926 C128.967356,2.74703945 128.998446,3.23475472 129,3.71798869 Z" id="Path" fill="#FFFFFF"></path>
                <path d="M126.959277,13 C127.054848,13.3237347 126.940579,13.6780105 127.05,14 C126.926035,13.6797557 126.947504,13.3394415 126.959277,13 Z" id="Path" fill="#FFFFFF"></path>
                <path d="M120,35.6360251 C119.997183,44.04647 119.994132,52.4571632 119.990846,60.8681048 C119.733834,61.0774718 119.435982,60.9739059 119.157141,60.9776313 C118.151625,60.9910427 117.145405,60.9873173 116.139186,60.9776313 C115.920197,60.9776313 115.684309,61.0484137 115.49067,60.8651245 C115.49067,53.3805637 115.49067,45.8962513 115.49067,38.4121872 C115.49067,38.2303881 115.577984,38.0143154 115.382232,37.8705152 C114.929468,37.735656 114.441497,37.9748262 114,37.7214995 C114,36.1916053 114,34.6619593 114,33.1325618 C114.211243,32.9231947 114.47248,33.0252705 114.709072,33.0222901 C115.61812,33.0088787 116.527168,33.011114 117.436216,33.0222901 C118.882526,33.0379368 119.704964,33.87615 120,35.6360251 Z" id="Path" fill="#000000"></path>
                <path d="M116.988276,3.1263816 C117.011481,6.39810588 116.993198,9.67058715 116.992495,12.9430684 C115.508781,13.0513184 114.023661,12.9688062 112.539947,12.98546 L112.539947,12.98546 C112.52518,10.568381 112.513226,8.15130195 112.49213,5.73422291 C112.49213,5.47760224 112.562448,5.20432772 112.429547,4.96208992 L112.429547,4.96208992 L112.426031,4.95679097 L112.426031,4.95679097 C111.98373,4.71076821 111.507675,4.91818432 111.05342,4.83642907 L111.05342,4.83642907 C110.979701,3.23427981 110.982282,1.62911658 111.061155,0.0272517524 L114.899825,0 C116.271734,0.25434969 116.977025,1.50263135 116.988276,3.1263816 Z" id="Path" fill="#FFFFFF"></path>
                <path d="M111.981162,35.3639937 C111.935182,36.1904888 112.096489,37.0236914 111.899001,37.8449697 L110.490959,37.8539128 C110.24523,38.0379925 110.368848,38.3010698 110.368095,38.5246483 C110.358296,41.460234 110.363572,44.3958196 110.361311,47.3314052 C110.356788,51.8447098 110.350758,56.3575175 110.34322,60.8698284 C109.904526,61.0829732 109.438697,60.9682029 108.986435,60.9764008 C107.868594,60.9972681 106.75,60.9905608 105.631406,60.9950323 C105.519848,60.720776 105.561305,60.4323598 105.561305,60.1499056 C105.561305,52.9715454 105.558793,45.7921915 105.553768,38.6118439 C105.553768,38.3659076 105.672109,38.0901608 105.444471,37.8665823 C103.189946,37.8524223 100.934667,37.817395 98.6801417,37.8397529 C98.1102918,37.845715 97.9829047,37.6772858 98.0017489,37.1436785 C98.0424525,35.9415714 98.0273771,34.7364834 98.0070253,33.5328858 C98.0002414,33.1535476 98.0778797,32.9977879 98.5105435,33 C102.115824,33.0171647 105.721858,33 109.327139,33.0149289 C110.748748,33.0216363 111.519855,33.7311254 111.981162,35.3639937 Z" id="Path" fill="#000000"></path>
                <path d="M109,3.38042746 C109,11.3171482 109,19.2536199 109,27.1898426 C109,27.4513121 108.969676,27.7127817 108.953756,27.9742512 L108.940868,27.9824688 C107.339767,27.9652865 105.73715,28.0571744 104.136807,27.9324161 C104.136807,20.4279916 104.136807,12.9240652 104.136807,5.42063683 C104.136807,5.24657283 104.113306,5.07250883 104.100418,4.89769777 C103.23783,4.70233419 102.341507,4.70233419 101.478919,4.89769777 C101.468305,5.13824974 101.447837,5.3788017 101.447078,5.61860661 C101.447078,13.0607764 101.445562,20.5026972 101.44253,27.944369 C99.3532142,28.0310274 97.2654147,28.0003981 95.1760991,27.9600571 L95.1897448,23.231194 L95.1897448,23.231194 C95.2303311,23.2371468 95.2716328,23.2266349 95.3042175,23.2020588 C95.4148997,23.2080352 95.5255819,23.218494 95.6370221,23.2192411 C96.5982893,23.2282057 96.5982893,23.2274587 96.5982893,22.3018566 C96.5982893,16.9887958 96.5982893,11.675984 96.5982893,6.36342124 C96.5982893,5.86289386 96.8105565,5.22939054 96.5058014,4.89844483 C96.2010464,4.56749911 95.5377114,4.83942742 95.0381254,4.76696301 C94.9926396,3.18768706 94.9797519,1.60691701 95.0449483,0.0268940085 L106.795454,0 C108.023571,0.284628257 108.63763,1.14150125 108.964369,2.26582022 C108.976499,2.63710695 109,3.00839367 109,3.38042746 Z" id="Path" fill="#FFFFFF"></path>
                <path d="M101.49063,67.0009696 C102.425873,67.0315463 103.04728,67.6687935 102.997177,68.546485 C102.944988,69.4672619 102.290179,70.0433556 101.351457,69.9954057 C100.494152,70.0648983 99.8901415,69.3400905 100.016789,68.2254292 C100.100989,67.4901975 100.66951,66.9745624 101.49063,67.0009696 Z" id="Path" fill="#FFFFFF"></path>
                <path d="M98,68.0591559 L98,68.9128404 C97.7210277,69.5853773 97.2474723,69.9837634 96.4928523,69.9997266 C95.8372675,70.0129136 95.1537855,69.5472044 95.0484734,69.012784 C94.8734184,68.1264789 95.1830776,67.347058 95.8065806,67.1145504 C96.5507391,66.8327651 97.4225274,67.0874824 97.7928631,67.6961664 C97.8681856,67.8148494 97.9302569,67.9376967 98,68.0591559 Z" id="Path" fill="#FFFFFF"></path>
                <path d="M95.9993971,60.3245246 C96.0118323,60.8561073 95.8333495,61.00671 95.330818,60.9955267 C94.020725,60.9701777 92.7099005,60.9955267 91.3990759,61 L91.3990759,61 C91.2805751,60.7278714 91.3259272,60.4408316 91.3259272,60.1582652 C91.3259272,52.9845076 91.3237328,45.8107501 91.3193439,38.6369925 C91.3193439,38.3864851 91.4166316,38.115102 91.229371,37.8817424 C89.6435074,37.747542 88.0547178,37.8563934 86.4673912,37.8258256 C85.8012505,37.8129026 85.1348659,37.8129026 84.4682375,37.8258256 C84.1595501,37.8325356 83.995697,37.7661809 84,37.3956387 C84.0176416,36.0804747 84.0154471,34.7645651 84,33.449401 C83.9964285,33.1042077 84.1141979,32.997593 84.4477559,33.0020663 C87.4783061,33.0117586 90.5081249,32.9819363 93.5379436,33.0199597 C94.9840932,33.0378531 95.9898877,34.331396 95.9913507,36.0551257 C95.9947643,42.7412884 95.9947643,49.4279482 95.9913507,56.115105 C95.9884247,57.5189904 95.9672116,58.9221303 95.9993971,60.3245246 Z" id="Path" fill="#000000"></path>
                <path d="M88.9976518,43.6473542 C89.0007827,49.2190559 89.0007827,54.7895249 88.9976518,60.3587612 C88.98605,60.573589 88.9620108,60.7876556 88.9256419,61 C87.4776153,60.9955624 86.0295888,60.975593 84.582345,60.9948228 C84.1307172,61.0014792 83.9992208,60.8735273 84,60.443816 C84.0140924,54.8129458 84.0140924,49.1828152 84,43.5534242 C84,43.1192752 84.1487197,42.9942817 84.593303,43.0001986 C86.0413295,43.0201679 87.4893561,43.0053758 88.9373826,43.0001986 C88.9546024,43.2183825 88.9976518,43.4328683 88.9976518,43.6473542 Z" id="Path" fill="#000000"></path>
                <path d="M73.9897379,85.2869054 C73.9897379,85.8115334 73.8674455,86.034482 73.3502649,85.9954844 C72.7693343,85.9520709 72.1863086,85.9520709 71.605378,85.9954844 C71.1271397,86.0308029 70.9966489,85.8630397 71.0000649,85.3472413 C71.0219272,82.1891717 71.0109961,79.0303664 71.0109961,75.8722968 C71.0109961,73.4713693 71.0219272,71.069706 71.0062137,68.6687784 C70.9986985,67.5393197 71.4161323,66.6894665 72.2995069,66.0897864 C72.6834639,65.8293119 73.0387267,65.5202743 73.419951,65.255385 C73.5565906,65.1589947 73.6604366,64.9088215 73.8735943,65.0346439 C74.0737712,65.1509009 73.9760739,65.3826791 73.9767571,65.5600077 C73.9826782,68.8465977 73.9840446,72.1346592 73.9808563,75.4241924 C73.9808563,78.713235 73.9719747,81.9985986 73.9897379,85.2869054 Z" id="Path" fill="#000000"></path>
                <path d="M70,33.1141055 L70,37.1861075 C69.0042626,37.3964197 67.9968364,37.2726189 66.9974462,37.265161 C66.4736431,37.265161 66.3801329,37.4284885 66.3808634,37.9214543 C66.3962049,45.352485 66.3852467,52.7827698 66.4035104,60.2138004 C66.4035104,60.8029729 66.2829699,61.0259634 65.6620038,60.9976235 C64.5062763,60.9454183 63.345435,60.9588425 62.1882464,60.9976235 C61.7345758,61.0117935 61.6366824,60.8820264 61.6374129,60.4278415 C61.653485,52.9751831 61.6374129,45.5225246 61.6666348,38.0698661 C61.6666348,37.3897076 61.4934949,37.2286174 60.8630317,37.2718731 C59.9447324,37.3345193 59.0205887,37.300213 58.0986367,37.3069251 C57.9686019,35.87442 57.9671347,34.4327779 58.0942534,33 C61.8151797,33.0039775 65.5358625,33.0079551 69.2563018,33.0119326 C69.508341,33.0096952 69.7684162,32.9634564 70,33.1141055 Z" id="Path" fill="#FFFFFF"></path>
                <path d="M67.9258884,65.4555861 C67.935256,71.4401741 67.9372282,77.4262709 67.9318048,83.4138763 C67.9318048,84.84716 67.329809,85.4544197 65.9113473,85.4581915 C63.5447793,85.463472 61.1782112,85.4868572 58.8116432,85.4581915 C58.273249,85.4521566 58.055081,85.5886958 58.1386504,86.1529569 C58.1837631,86.4547008 58.1660138,86.771532 58.1771071,87.0815739 L58.1771071,87.7333408 C57.9692929,90.1201353 57.1010582,91.1890632 54.8291529,91.8634609 C54.7571153,91.8984368 54.6907688,91.9444862 54.6324319,92 L52.4137744,92 C51.9700429,91.6635555 51.4094621,91.5896282 50.9213574,91.3444613 C49.6175263,90.6889226 49.0658202,89.5837854 49.0251448,88.1542736 C50.7438648,88.1376776 52.4625849,88.1248535 54.1813049,88.0999596 C54.4068684,88.0999596 54.6546185,88.195009 54.858735,88.006419 C54.9815007,87.2822336 54.8779634,86.5527676 54.914941,85.8263191 C54.9334298,85.4657351 54.7137827,85.4491392 54.4534602,85.452911 C52.6568407,85.4609575 50.8602211,85.4664895 49.0636015,85.4695069 C49.041908,84.1433423 49.0207075,82.8169263 49,81.4902588 C49.0133119,80.102991 49.3387151,78.7911593 50.0568205,77.6181297 C51.0862776,75.9359073 52.6082767,75.0570781 54.5540394,74.9778703 C55.5731427,74.9356261 56.4768759,74.5780596 57.3214449,74.0198333 C57.5329569,73.8802767 57.774051,73.6637755 58.0232802,73.8154018 C58.2569788,73.9564671 58.1282967,74.2627372 58.1290362,74.4943256 C58.1379109,76.6895128 58.1334735,78.8854542 58.1364317,81.0806414 C58.1364317,81.3318432 58.0565601,81.6328328 58.4855005,81.6283066 C60.5473729,81.6064302 62.6092453,81.5958691 64.6711178,81.5815363 C64.8552663,81.4231207 64.7694782,81.2088825 64.7694782,81.0218013 C64.7744086,76.3447703 64.7758877,71.6654763 64.7739155,66.9839191 C64.9159096,65.8697296 65.6096099,65.2089104 66.5281341,64.7117873 C66.9718656,64.4719009 67.4473979,63.8510627 67.8134764,64.0328634 C68.152931,64.1973139 67.9251488,64.9592173 67.9258884,65.4555861 Z M54.9023686,78.8077552 C54.9112432,78.5060112 54.7966126,78.4207686 54.5089267,78.4826261 C53.4269613,78.7164776 52.6437752,79.3192112 52.2902691,80.4032262 C51.9404608,81.4729085 52.0684034,81.631324 53.1340985,81.631324 L53.394421,81.631324 C54.9008895,81.631324 54.9008895,81.631324 54.9001499,80.0713079 C54.8994104,79.6473577 54.8905358,79.2256705 54.9023686,78.8047377 L54.9023686,78.8077552 Z" id="Shape" fill="#000000"></path>
                <path d="M56,33.9065831 C56,42.348979 56,50.7911264 56,59.2330253 C56,59.7810875 55.9875822,60.3284041 55.9802776,60.8734838 C54.8400292,61.1128416 53.6866326,60.9241888 52.5405405,60.9704199 C52.3403944,60.9786222 52.311176,60.8078654 52.2607743,60.6169757 C51.6866326,58.4520676 51.0986121,56.2911364 50.4967129,54.134182 C49.9853908,52.3170014 49.4448503,50.5087687 48.9211103,48.6953164 C48.9026687,48.5902896 48.895322,48.4835457 48.8991965,48.3769183 C48.9211103,48.176335 48.8509861,48.0160175 48.6654492,47.7923186 L48.6654492,48.5320162 C48.6654492,52.4283537 48.6654492,56.3246912 48.6654492,60.2210287 C48.6654492,60.4805194 48.7100073,60.7474667 48.5924032,60.9972638 C47.2878013,60.9972638 45.982469,60.9972638 44.6778671,60.9823506 C44.4506939,60.9823506 44.2045289,61.0621365 44,60.8824317 C44,51.6282574 44,42.374083 44,33.1199087 C45.0956903,32.8909901 46.211103,33.0684579 47.3162893,33.0244638 C47.5580716,33.0147702 47.577794,33.2265385 47.6347699,33.4293588 C48.3922571,36.141335 49.1687363,38.8488371 49.9320672,41.557085 C50.2972973,42.8575212 50.6479182,44.163177 51.0109569,45.4651045 C51.0255661,45.5158096 51.0949598,45.5508558 51.182615,45.6358613 C51.3330898,45.4039602 51.2731921,45.1683307 51.2731921,44.9535797 C51.2775749,41.1872362 51.2856099,37.4223839 51.265157,33.6552947 C51.265157,33.1504809 51.3783784,32.984198 51.8926224,33.0013483 C53.0489408,33.0423597 54.2067202,33.0155159 55.3644996,33.0125332 C55.5770636,33.0125332 55.788897,32.9983656 55.9802776,33.1199087 C55.9868517,33.3808907 56,33.6441097 56,33.9065831 Z" id="Path" fill="#FFFFFF"></path>
                <path d="M49.885654,27.3182094 C49.9352002,27.5281541 50.0976827,27.7664898 49.9162561,27.9995956 L45.3055425,27.9487905 C44.8851281,26.0107248 44.4574276,24.0741534 44.0464854,22.1338462 C43.6355431,20.1935391 43.2406306,18.2539791 42.722581,16.3263733 L42.722581,27.9278708 C41.192477,28.0735619 39.6507149,27.9443077 38.1147819,27.9973542 C37.9428273,27.7866624 38.0156894,27.5341311 38.0156894,27.3010253 C38.0113177,18.4350346 38.0113177,9.56904386 38.0156894,0.703053141 C38.0156894,0.469947317 37.9428273,0.218163143 38.1111388,0.00672420645 L42.5972582,0.00672420645 C42.7947145,0.230864421 42.7101945,0.509545422 42.7101945,0.763570999 C42.7160234,4.16452519 42.7174807,7.56572843 42.7145662,10.9671807 L42.7145662,11.6836823 L42.8151159,11.6956364 C43.1335233,10.243955 43.4621313,8.79376777 43.7681522,7.33909777 C44.143392,5.5579302 44.4967732,3.77227982 44.8610837,1.98812371 C44.9725627,1.44346298 45.1051717,0.901790798 45.191149,0.352647271 C45.2202938,0.168852295 45.3223007,0.0948860243 45.4337798,0 L49.9206278,0.0358624344 C49.9031409,1.19989728 49.4783549,2.27726458 49.2189658,3.38750578 C48.4174827,6.810874 47.5722824,10.2222881 46.7460262,13.6389321 C46.6900491,13.8954694 46.6973114,14.1622681 46.7671562,14.4152044 C47.8149132,18.7147118 48.8544124,23.0157134 49.885654,27.3182094 Z" id="Path" fill="#000000"></path>
                <path d="M44.8110653,78 C45.1024547,78.1900297 44.9697276,78.485295 44.9704904,78.7290781 C44.97583,81.8732747 44.9704904,85.0174713 44.9636252,88.1616679 C44.5723091,89.7364161 43.5623628,90.6691515 41.9742146,91 L40.3761499,91 C38.5652643,90.8023994 37.0144932,89.3518141 37,87.4992138 C37.4683588,87.4863433 37.9382432,87.4825578 38.406602,87.4575738 C39.1503314,87.4182051 39.8978747,87.5196552 40.6393157,87.4462175 C40.8077454,87.4693717 40.9793197,87.4430518 41.1328469,87.3705084 C41.2785416,85.3929882 41.1435261,83.4124396 41.2037872,81.4341623 C41.2266712,80.6997845 41.4570366,80.0713995 42.0077777,79.5580921 C42.2133656,79.3612317 42.4479423,79.1965721 42.7034507,79.0697688 C43.4105657,78.7207501 44.0612336,78.2619533 44.8110653,78 Z" id="Path" fill="#000000"></path>
                <path d="M41.9998475,58.0209896 C42.0151525,59.6609286 40.8774809,61.022078 39.1203214,60.9989697 C36.7881311,60.9676618 34.4559409,61.0302777 32.1295812,60.9788432 C31.1988915,60.9587167 30.6318778,60.2647243 30.2171852,59.4693539 C30.1289993,59.300142 30.0976605,59.0966405 30.0408133,58.9132655 C30.0269659,58.3571771 30.0021864,57.8010887 30,57.2450003 C30,50.8209121 30,44.3968239 30,37.9727357 C30,37.017844 30.0233219,36.0622068 30.0349829,35.1073151 C30.1647109,33.9891748 31.0946718,33.2049858 32.00787,33.1378974 C34.5844922,32.9586262 37.1698959,32.9541438 39.7470975,33.1244797 C40.9510907,33.1990224 41.9998475,34.3029995 41.9947458,35.8825589 C41.9830849,40.1091289 41.9911018,44.3356989 41.9911018,48.5615235 C41.9911018,51.7139334 41.9699663,54.8678343 41.9998475,58.0209896 Z M36.5753188,56.7284196 C37.1029768,56.7284196 37.2771623,56.5606985 37.2727894,56.0090827 C37.2494675,53.0273755 37.2611285,50.0456682 37.2611285,47.0684336 L37.2611285,39.1147296 C37.2611285,37.286943 37.2611285,37.3093058 35.4667996,37.290496 C34.8567861,37.2839613 34.6570923,37.4695726 34.6600076,38.1106397 C34.6826007,43.6767416 34.6731261,49.2420982 34.6731261,54.8082001 C34.6731261,56.7485461 34.6731261,56.7321467 36.5753188,56.7284196 L36.5753188,56.7284196 Z" id="Shape" fill="#FFFFFF"></path>
                <path d="M37,79.2391887 C37,80.8138793 37,82.38857 37,83.9632606 C37,85.3731343 36.3970391,85.9869881 35.0180805,85.9877535 C31.571065,85.9877535 28.1240496,85.9778033 24.6770342,86 C24.158686,86 23.9726905,85.8813624 24.0031815,85.3348641 C24.0477744,84.481005 24.0477744,83.6253861 24.0031815,82.771527 C23.9780264,82.2449292 24.1297195,82.0826636 24.6701737,82.0895522 C27.4235173,82.1171068 30.1768609,82.0818982 32.9294422,82.1178722 C33.5529846,82.1255262 33.7839544,81.9464217 33.6917189,81.3348641 C33.6699967,81.178458 33.6699967,81.0197816 33.6917189,80.8633754 C33.8052982,79.960199 33.5217312,79.2912361 32.6153842,78.9789514 C32.3775538,78.7944891 32.0985605,78.8694987 31.8378619,78.8679679 C29.8490819,78.854956 27.8603018,78.8503636 25.8715218,78.8427095 L25.8715218,74 C26.4958265,74.7386146 27.0858287,75.3654803 28.0020853,75.4818217 C28.1728353,75.6280138 28.3832237,75.5966322 28.5783665,75.5966322 C30.4510264,75.5966322 32.3239404,75.594336 34.1971084,75.5897436 C36.2140927,76.1171068 36.9992377,77.1389208 37,79.2391887 Z" id="Path" fill="#000000"></path>
                <path d="M34,0.881048333 C34,8.90190113 34,16.9227539 34,24.9436067 C34,25.9516934 33.9875723,26.9612747 33.980993,27.9686141 L30.3872068,28 C29.1407859,23.7965251 28.0318002,19.555686 26.8848005,15.3215725 C26.8972281,15.1444661 26.8424002,15.0062185 26.6399025,14.8433105 L26.6399025,27.9745923 L22.0116966,27.9663722 C22.0073104,21.0026778 22.0034115,14.0389833 22,7.07528891 C22,4.72806854 22.0102345,2.38084817 22.0160829,0.033627799 L25.4753579,0 C26.0199817,1.43777523 26.3401767,2.94504791 26.7663722,4.41944007 C27.5602802,7.1664576 28.3344502,9.91945341 29.1166616,12.6702074 C29.1093512,12.7845419 29.124703,12.8876671 29.2548279,12.950439 C29.3440146,12.7942566 29.3279318,12.6268649 29.3111179,12.4639569 C29.3210318,12.3950782 29.3185544,12.3249277 29.3038075,12.2569591 C29.3091684,8.79105394 29.3111179,5.32489969 29.3096558,1.85849636 C29.3096558,1.24572313 29.3359732,0.632949905 29.350594,0.0201766794 L33.9766068,0.0328805146 C33.9846482,0.319090448 34,0.600069391 34,0.881048333 Z" id="Path" fill="#000000"></path>
                <path d="M27.9388244,60.5239552 C28.0566923,60.8490648 28.0208843,60.9780647 27.6836927,60.9788103 C26.2819604,60.9825386 24.8794821,60.9713537 23.4784958,60.9855213 C23.2151581,60.9855213 23.1263842,60.8087989 23.0793863,60.6499724 C22.1991073,57.6799921 21.3374784,54.7033008 20.4542154,51.7333205 C20.3848375,51.4999276 20.3005396,51.1576678 19.8947161,51.2978526 C19.6246644,51.4656271 19.7775942,51.7295922 19.7768482,51.9368868 C19.7567063,54.9158151 19.7552143,57.8954891 19.7492463,60.875163 C19.3598347,61.079475 18.9413292,60.9698624 18.5369977,60.9765733 C17.3851751,60.9959606 16.2333525,60.9899953 15.0807839,60.9944693 C14.971122,60.7655504 15.006184,60.5209725 15.006184,60.2816143 C15.006184,51.4246155 15.006184,42.5678653 15.006184,33.7113636 C15.006184,33.4720054 14.968138,33.2274276 15.0807839,33 L24.2767148,33.0119306 C25.5329773,33.0119306 26.5184421,33.4742424 27.0331815,34.6837097 C27.1585094,34.9767557 27.2010313,35.3041022 27.2808532,35.6157898 L27.2808532,48.6403056 C27.1100194,49.8408249 26.5348541,50.7281652 25.3449855,51.1390262 C25.0048099,51.2553498 25.1831037,51.4372918 25.2442757,51.6356385 C25.9281082,53.8761107 26.6067187,56.1185714 27.2801072,58.3630205 C27.5016689,59.0840777 27.6836927,59.8170656 27.9388244,60.5239552 Z M22.428129,37.8341407 C22.428129,37.4419214 22.2834052,37.2726556 21.8902637,37.2830949 C21.3680643,37.2965168 20.836167,37.3218694 20.3147136,37.2756382 C19.8231002,37.2308984 19.7492463,37.4322277 19.7574523,37.8669499 C19.7843082,39.2904228 19.7671502,40.7146413 19.7671502,42.1381142 C19.7671502,43.079888 19.7514843,44.0224075 19.7731182,44.9634357 C19.7880382,45.6136548 19.4806866,46.5293304 19.8902401,46.8417637 C20.3214276,47.1728385 21.1852945,46.9394457 21.8604237,46.9528676 C21.8822921,46.9517491 21.9042033,46.9517491 21.9260716,46.9528676 C22.2990712,46.9819485 22.427383,46.7985151 22.426637,46.4420877 C22.4206691,43.572772 22.4211664,40.7034564 22.428129,37.8341407 Z" id="Shape" fill="#FFFFFF"></path>
                <path d="M22.9745327,76.3124099 C22.9835211,79.0951276 22.9920102,81.8793503 23,84.6650781 C22.5063831,85.5816141 21.7850583,85.9977425 20.7064417,85.9924751 C14.0677066,85.9616229 7.42897154,85.9766727 0.790236436,85.9781777 C0.526574611,85.9781777 0.265908943,85.9924751 0,86 L0,80.6881545 C0.393994659,79.8295604 0.621702599,78.9054995 1.17074839,78.1040948 C2.14000521,76.6871512 3.36768058,75.8195272 5.14065655,75.7623377 C6.9533316,75.7043958 8.66114115,75.278485 10.0573504,74 L10.0573504,74 C10.26034,74.2024205 10.1719534,74.459773 10.1727024,74.6922932 C10.1794438,76.9497711 10.1727024,79.2027341 10.183938,81.4579545 C10.183938,81.6776823 10.04986,81.9440647 10.3052824,82.1246629 C13.2939491,82.1351978 16.2823661,82.1462344 19.2705334,82.1577726 C19.5154693,82.1577726 19.6278252,82.1126231 19.7049762,81.8191509 C19.8712629,81.1847996 19.7986061,80.5519533 19.8240735,79.9183545 L19.8240735,79.9183545 C19.8256002,79.9162641 19.8268585,79.9139887 19.8278187,79.9115821 C19.9581515,79.7001317 19.9349313,79.4661065 19.9266919,79.2343387 C19.9266919,78.4246567 20.5191819,77.9882109 21.0584902,77.578855 C21.6599687,77.1062896 22.2404742,76.5855647 22.9745327,76.3124099 Z M6.98554029,79.6594971 C7.00651339,79.2313288 6.81850453,79.0883552 6.4364945,79.0116009 C4.93841594,78.7106039 3.1639419,80.2005393 3.184915,81.7393867 C3.18940924,82.0607011 3.30775744,82.1668025 3.61411451,82.1570201 C4.0964958,82.1412178 4.58037517,82.1525052 5.06425454,82.1525052 C5.52566274,82.1525052 5.98781997,82.1329404 6.44773009,82.1592776 C6.83498339,82.1818524 7.00501531,82.0704835 6.98479125,81.6468301 C6.95408064,80.9853891 6.95258256,80.3201856 6.98554029,79.6594971 Z" id="Shape" fill="#000000"></path>
                <path d="M20.8273017,89 C22.125248,89.3102572 22.2526198,90.748849 21.662833,91.444493 C21.2095365,91.962079 20.4820891,92.1387159 19.8436315,91.8862269 C19.2275396,91.6309256 18.9236471,90.9763246 19.016407,90.1032914 C19.0655559,89.6420794 19.6117317,89.1460852 20.231977,89.0006956 L20.8273017,89 Z" id="Path" fill="#000000"></path>
                <path d="M20,27.909347 L20,27.909347 C18.3356551,28.031452 16.6641495,28.0302033 15,27.9056115 C15.0061538,25.9295368 15.0176923,23.952715 15.0184615,21.9758932 C15.0184615,14.9033637 15.0202564,7.83083418 15.0238462,0.758304662 C15.0238462,0.505785474 14.9276923,0.229359144 15.1323077,0 L19.8707692,0.0306310257 C20.0330769,0.292115392 19.9838462,0.582736587 19.9838462,0.864392604 C19.9838462,9.63831373 19.9838462,18.4127329 19.9838462,27.1876502 C19.9876923,27.4274687 19.9961538,27.6687814 20,27.909347 Z" id="Path" fill="#000000"></path>
                <path d="M17,90.1294085 C17,90.3703304 17,90.6119486 16.9965024,90.8528705 C16.8265182,91.3305365 16.5586008,91.7371792 16.0570425,91.9056853 C15.2134173,92.1890819 14.3026379,91.811684 14.0983771,91.070118 C13.8752291,90.2436027 13.9584724,89.2005362 15.128775,89 L15.8562793,89 C16.4097761,89.1513551 16.843532,89.5796831 17,90.1294085 L17,90.1294085 Z" id="Path" fill="#000000"></path>
                <path d="M13,3.17531167 C13,6.52852452 13,9.88173737 13,13.2349502 C13,14.729918 12.2245569,15.7464962 10.8118034,16.1411677 C9.26018637,16.1411677 7.70783848,16.1411677 6.15622145,16.1411677 C5.99981728,16.1411677 5.81125525,16.0589444 5.6935867,16.2525428 C5.68189293,18.5762211 5.67093002,20.9003978 5.66069797,23.2250727 C5.65485109,24.8045063 5.66069797,26.3839398 5.66069797,27.9633733 L1.02631098,28 L1.01900238,27.9932726 C1.01242463,27.8437759 1,27.6868042 1,27.53357 C1,18.5398436 1,9.54512044 1,0.549400678 C1,0.37598441 1.01827151,0.201073173 1.02850356,0.0261619371 L10.5552713,0 C12.3780376,0.455965189 13,1.26100537 13,3.17531167 Z M7.68737438,11.8991965 C8.05280468,11.9051763 8.25013704,11.7639019 8.2494082,11.3647455 C8.24502101,9.17212597 8.24502101,6.97950648 8.2494082,4.786887 C8.2494082,4.42809472 8.09154029,4.26364826 7.74511237,4.26364826 C7.21012242,4.26813316 6.67293989,4.28981019 6.13721908,4.25617342 C5.7177051,4.23001148 5.64096474,4.41987239 5.64681162,4.79660429 C5.665814,5.89241571 5.65412023,6.98897461 5.65412023,8.08553352 C5.65412023,9.20675939 5.66289055,10.3220054 5.64827334,11.4394938 C5.64388818,11.7698817 5.72939887,11.9171361 6.07875023,11.9006914 C6.6188562,11.8790144 7.15457701,11.8909741 7.68737438,11.8991965 Z" id="Shape" fill="#000000"></path>
                <path d="M11.2190115,33 C11.8518728,32.9956064 12.0277945,33.178271 11.9965703,33.7799459 C11.946307,34.7417311 11.9554457,35.7079896 11.9965703,36.6697748 C12.0171326,37.1760167 11.8305489,37.302018 11.3439083,37.2967991 C9.37754524,37.2751775 7.41042056,37.3042548 5.44405745,37.2759231 C4.96884034,37.2684674 4.85689016,37.397451 4.86222112,37.8522486 C4.88735279,39.9979988 4.89649158,42.1444945 4.85765172,44.2902446 C4.84775136,44.8255638 5.0389044,44.8867005 5.50041333,44.8755169 C6.6618013,44.8456941 7.82395083,44.8658245 8.98686194,44.865079 C9.22903989,44.865079 9.47578723,44.838984 9.70121074,44.9612575 L9.70121074,49.0335602 C9.05083347,49.2572312 8.37913236,49.1081172 7.72113944,49.132721 C6.95957356,49.1603071 6.19800767,49.1714906 5.44253432,49.127502 C4.95817842,49.0991703 4.86298268,49.2579767 4.86526738,49.7068098 C4.88506809,53.2109883 4.86526738,56.7151667 4.89039905,60.2193452 C4.89496845,60.8158011 4.7510325,61.0200872 4.11360185,60.9984657 C2.77476903,60.9537315 1.43365151,60.9932467 0.0932955575,60.9984657 C-0.0399784721,60.7509365 0.00876174446,60.4832769 0.00876174446,60.223073 C0.00876174446,51.4084488 0.00876174446,42.5933275 0.00876174446,33.7777092 C0.00876174446,33.5182509 -0.0407400379,33.2498457 0.0955802551,33.0030621 C3.79983671,33.0045532 7.50942413,33.023938 11.2190115,33 Z" id="Path" fill="#FFFFFF"></path>
                <path d="M10,68.0425465 C10,68.3198484 10,68.5973787 10,68.8751374 C9.48773474,70.0058163 8.2238214,70.3539284 7.43797577,69.5974014 C6.88872133,69.069066 6.95502269,68.4173837 7.10856269,67.8081876 C7.26838387,67.1743221 7.88742922,67.0084892 8.46390212,67.0002661 C9.0696872,66.992043 9.63918101,67.1722664 9.869491,67.8390243 C9.90526153,67.9113588 9.94902776,67.97961 10,68.0425465 L10,68.0425465 Z" id="Path" fill="#000000"></path>
                <path d="M3.902153,67.9429858 C4.12593516,68.5068251 3.95266183,69.255857 3.5170232,69.6110964 C2.97283671,70.065733 2.19334332,70.1278406 1.58155302,69.7653089 C1.19782624,69.536744 1.03226953,69.2014696 1,68.781516 C1,68.5832429 1,68.3849697 1,68.1860081 C1.23500635,67.3488548 1.59488174,67.0411184 2.3868882,67.0018768 C3.02315911,66.9688313 3.67977386,67.3757043 3.902153,67.9429858 Z" id="Path" fill="#000000"></path>
            </g>
        </g>
    </g>
</svg>